<svg width="838" height="838" viewBox="0 0 838 838" fill="none" xmlns="http://www.w3.org/2000/svg">
<g clip-path="url(#clip0_101_1767)">
<path d="M419.012 484.016L225.71 372.415V198.263C225.71 133.908 278.076 81.542 342.431 81.542C371.292 81.542 398.659 92.529 419.759 111.205L477.081 78.1165C479.704 76.6042 482.419 75.4017 485.098 74.0169C449.422 33.2211 397.584 8.6781 342.431 8.6781C237.9 8.6781 152.847 93.7315 152.847 198.282V414.505L346.13 526.123L419.012 484.016Z" fill="url(#paint0_linear_101_1767)"/>
<foreignObject x="277.786" y="40.7347" width="495.327" height="422.78"><div xmlns="http://www.w3.org/1999/xhtml" style="backdrop-filter:blur(6px);clip-path:url(#bgblur_1_101_1767_clip_path);height:100%;width:100%"></div></foreignObject><g filter="url(#filter0_i_101_1767)" data-figma-bg-blur-radius="12">
<path d="M362.668 451.515V228.295L513.497 141.237C569.234 109.06 640.749 128.21 672.945 183.947C687.376 208.945 691.548 238.134 685.918 265.739L743.24 298.827C745.864 300.339 748.269 302.088 750.801 303.71C768.293 252.419 763.629 195.243 736.061 147.487C683.786 56.9493 567.612 25.8287 477.056 78.1034L289.786 186.206V409.426L362.668 451.515Z" fill="#1D1D1D" fill-opacity="0.05"/>
<path d="M362.668 451.515V228.295L513.497 141.237C569.234 109.06 640.749 128.21 672.945 183.947C687.376 208.945 691.548 238.134 685.918 265.739L743.24 298.827C745.864 300.339 748.269 302.088 750.801 303.71C768.293 252.419 763.629 195.243 736.061 147.487C683.786 56.9493 567.612 25.8287 477.056 78.1034L289.786 186.206V409.426L362.668 451.515Z" fill="url(#paint1_linear_101_1767)" fill-opacity="0.2"/>
<path d="M477.306 78.5365C567.623 26.3999 683.491 57.4385 735.627 147.737C763.012 195.175 767.736 251.937 750.533 302.94C748.533 301.637 746.55 300.24 744.469 298.974L743.49 298.394L686.478 265.483C692.024 237.87 687.811 208.699 673.378 183.697C641.045 127.721 569.223 108.489 513.248 140.804L362.417 227.863L362.167 228.006V450.649L290.286 409.136V186.495L477.306 78.5365Z" stroke="url(#paint2_linear_101_1767)" stroke-opacity="0.1"/>
</g>
<path d="M362.686 386.467L555.987 274.848L706.799 361.942C762.535 394.119 781.703 465.635 749.526 521.371C735.095 546.37 711.901 564.572 685.171 573.5V639.677C685.171 642.72 684.861 645.672 684.715 648.678C737.865 638.183 785.074 605.55 812.642 557.813C864.916 467.275 833.778 351.101 743.24 298.826L555.987 190.705L362.668 302.306L362.686 386.467Z" fill="url(#paint3_linear_101_1767)"/>
<foreignObject x="340.917" y="299.861" width="356.251" height="541.445"><div xmlns="http://www.w3.org/1999/xhtml" style="backdrop-filter:blur(6px);clip-path:url(#bgblur_2_101_1767_clip_path);height:100%;width:100%"></div></foreignObject><g filter="url(#filter1_i_101_1767)" data-figma-bg-blur-radius="12">
<path d="M419.003 353.951L612.304 465.551V639.721C612.304 704.076 559.939 756.442 495.584 756.442C466.722 756.442 439.355 745.455 418.256 726.779L360.934 759.867C358.31 761.38 355.595 762.582 352.917 763.967C388.593 804.763 440.43 829.306 495.584 829.306C600.115 829.306 685.168 744.252 685.168 639.703V423.48L491.885 311.861L419.003 353.951Z" fill="#1D1D1D" fill-opacity="0.05"/>
<path d="M419.003 353.951L612.304 465.551V639.721C612.304 704.076 559.939 756.442 495.584 756.442C466.722 756.442 439.355 745.455 418.256 726.779L360.934 759.867C358.31 761.38 355.595 762.582 352.917 763.967C388.593 804.763 440.43 829.306 495.584 829.306C600.115 829.306 685.168 744.252 685.168 639.703V423.48L491.885 311.861L419.003 353.951Z" fill="url(#paint4_linear_101_1767)" fill-opacity="0.2"/>
<path d="M612.805 465.263L612.555 465.118L420.003 353.95L491.885 312.437L684.668 423.768V639.703C684.668 743.976 599.839 828.805 495.584 828.806C440.797 828.806 389.288 804.522 353.718 764.12C355.851 763.038 358.053 762.023 360.19 760.857L361.184 760.301L418.195 727.391C439.345 745.999 466.718 756.942 495.584 756.942C560.215 756.942 612.805 704.352 612.805 639.722V465.263Z" stroke="url(#paint5_linear_101_1767)" stroke-opacity="0.1"/>
</g>
<path d="M475.314 386.469V609.671L324.484 696.728C268.748 728.906 197.232 709.756 165.036 654.019C150.606 629.021 146.433 599.832 152.064 572.227L94.7418 539.139C92.1181 537.627 89.713 535.878 87.1803 534.256C69.6886 585.547 74.3531 642.723 101.921 690.479C154.195 781.016 270.369 812.137 360.925 759.862L548.196 651.76V428.54L475.314 386.469Z" fill="url(#paint6_linear_101_1767)"/>
<foreignObject x="-11.999" y="177.3" width="499.338" height="481.973"><div xmlns="http://www.w3.org/1999/xhtml" style="backdrop-filter:blur(6px);clip-path:url(#bgblur_3_101_1767_clip_path);height:100%;width:100%"></div></foreignObject><g filter="url(#filter2_i_101_1767)" data-figma-bg-blur-radius="12">
<path d="M475.32 451.511L282.019 563.13L131.208 476.036C75.4714 443.859 56.3034 372.343 88.4808 316.606C102.912 291.608 126.106 273.406 152.836 264.478V198.301C152.836 195.258 153.145 192.306 153.291 189.3C100.142 199.795 52.9326 232.428 25.3649 280.165C-26.9097 370.703 4.22914 486.877 94.7669 539.152L282.019 647.273L475.339 535.672L475.32 451.511Z" fill="#1D1D1D" fill-opacity="0.05"/>
<path d="M475.32 451.511L282.019 563.13L131.208 476.036C75.4714 443.859 56.3034 372.343 88.4808 316.606C102.912 291.608 126.106 273.406 152.836 264.478V198.301C152.836 195.258 153.145 192.306 153.291 189.3C100.142 199.795 52.9326 232.428 25.3649 280.165C-26.9097 370.703 4.22914 486.877 94.7669 539.152L282.019 647.273L475.339 535.672L475.32 451.511Z" fill="url(#paint7_linear_101_1767)" fill-opacity="0.2"/>
<path d="M152.756 189.917C152.602 192.675 152.336 195.465 152.336 198.301V264.119C125.64 273.125 102.481 291.354 88.0479 316.356C55.7324 372.332 74.9824 444.153 130.958 476.469L281.769 563.563L282.019 563.708L282.269 563.563L474.82 452.377L474.838 535.383L282.019 646.695L95.0166 538.719C4.71834 486.582 -26.3383 370.714 25.7979 280.416C53.1815 232.997 100.001 200.518 152.756 189.917Z" stroke="url(#paint8_linear_101_1767)" stroke-opacity="0.1"/>
</g>
</g>
<defs>
<filter id="filter0_i_101_1767" x="277.786" y="40.7347" width="495.327" height="422.78" filterUnits="userSpaceOnUse" color-interpolation-filters="sRGB">
<feFlood flood-opacity="0" result="BackgroundImageFix"/>
<feBlend mode="normal" in="SourceGraphic" in2="BackgroundImageFix" result="shape"/>
<feColorMatrix in="SourceAlpha" type="matrix" values="0 0 0 0 0 0 0 0 0 0 0 0 0 0 0 0 0 0 127 0" result="hardAlpha"/>
<feOffset dy="2"/>
<feGaussianBlur stdDeviation="4"/>
<feComposite in2="hardAlpha" operator="arithmetic" k2="-1" k3="1"/>
<feColorMatrix type="matrix" values="0 0 0 0 1 0 0 0 0 1 0 0 0 0 1 0 0 0 0.15 0"/>
<feBlend mode="normal" in2="shape" result="effect1_innerShadow_101_1767"/>
</filter>
<clipPath id="bgblur_1_101_1767_clip_path" transform="translate(-277.786 -40.7347)"><path d="M362.668 451.515V228.295L513.497 141.237C569.234 109.06 640.749 128.21 672.945 183.947C687.376 208.945 691.548 238.134 685.918 265.739L743.24 298.827C745.864 300.339 748.269 302.088 750.801 303.71C768.293 252.419 763.629 195.243 736.061 147.487C683.786 56.9493 567.612 25.8287 477.056 78.1034L289.786 186.206V409.426L362.668 451.515Z"/>
</clipPath><filter id="filter1_i_101_1767" x="340.917" y="299.861" width="356.251" height="541.445" filterUnits="userSpaceOnUse" color-interpolation-filters="sRGB">
<feFlood flood-opacity="0" result="BackgroundImageFix"/>
<feBlend mode="normal" in="SourceGraphic" in2="BackgroundImageFix" result="shape"/>
<feColorMatrix in="SourceAlpha" type="matrix" values="0 0 0 0 0 0 0 0 0 0 0 0 0 0 0 0 0 0 127 0" result="hardAlpha"/>
<feOffset dy="2"/>
<feGaussianBlur stdDeviation="4"/>
<feComposite in2="hardAlpha" operator="arithmetic" k2="-1" k3="1"/>
<feColorMatrix type="matrix" values="0 0 0 0 1 0 0 0 0 1 0 0 0 0 1 0 0 0 0.15 0"/>
<feBlend mode="normal" in2="shape" result="effect1_innerShadow_101_1767"/>
</filter>
<clipPath id="bgblur_2_101_1767_clip_path" transform="translate(-340.917 -299.861)"><path d="M419.003 353.951L612.304 465.551V639.721C612.304 704.076 559.939 756.442 495.584 756.442C466.722 756.442 439.355 745.455 418.256 726.779L360.934 759.867C358.31 761.38 355.595 762.582 352.917 763.967C388.593 804.763 440.43 829.306 495.584 829.306C600.115 829.306 685.168 744.252 685.168 639.703V423.48L491.885 311.861L419.003 353.951Z"/>
</clipPath><filter id="filter2_i_101_1767" x="-11.999" y="177.3" width="499.338" height="481.973" filterUnits="userSpaceOnUse" color-interpolation-filters="sRGB">
<feFlood flood-opacity="0" result="BackgroundImageFix"/>
<feBlend mode="normal" in="SourceGraphic" in2="BackgroundImageFix" result="shape"/>
<feColorMatrix in="SourceAlpha" type="matrix" values="0 0 0 0 0 0 0 0 0 0 0 0 0 0 0 0 0 0 127 0" result="hardAlpha"/>
<feOffset dy="2"/>
<feGaussianBlur stdDeviation="4"/>
<feComposite in2="hardAlpha" operator="arithmetic" k2="-1" k3="1"/>
<feColorMatrix type="matrix" values="0 0 0 0 1 0 0 0 0 1 0 0 0 0 1 0 0 0 0.15 0"/>
<feBlend mode="normal" in2="shape" result="effect1_innerShadow_101_1767"/>
</filter>
<clipPath id="bgblur_3_101_1767_clip_path" transform="translate(11.999 -177.3)"><path d="M475.32 451.511L282.019 563.13L131.208 476.036C75.4714 443.859 56.3034 372.343 88.4808 316.606C102.912 291.608 126.106 273.406 152.836 264.478V198.301C152.836 195.258 153.145 192.306 153.291 189.3C100.142 199.795 52.9326 232.428 25.3649 280.165C-26.9097 370.703 4.22914 486.877 94.7669 539.152L282.019 647.273L475.339 535.672L475.32 451.511Z"/>
</clipPath><linearGradient id="paint0_linear_101_1767" x1="152.847" y1="8.6781" x2="558.674" y2="74.8445" gradientUnits="userSpaceOnUse">
<stop stop-color="#75A5FF"/>
<stop offset="0.703125" stop-color="#2339FF"/>
</linearGradient>
<linearGradient id="paint1_linear_101_1767" x1="289.786" y1="52.7347" x2="831.959" y2="215.448" gradientUnits="userSpaceOnUse">
<stop stop-color="#87FFE1"/>
<stop offset="0.776042" stop-color="#5C6DFF"/>
</linearGradient>
<linearGradient id="paint2_linear_101_1767" x1="304.515" y1="70.8611" x2="761.113" y2="70.8611" gradientUnits="userSpaceOnUse">
<stop stop-color="#3CDEB6"/>
<stop offset="0.65625" stop-color="#364AFF"/>
</linearGradient>
<linearGradient id="paint3_linear_101_1767" x1="362.668" y1="190.705" x2="919.993" y2="337.586" gradientUnits="userSpaceOnUse">
<stop stop-color="#75A5FF"/>
<stop offset="0.703125" stop-color="#2339FF"/>
</linearGradient>
<linearGradient id="paint4_linear_101_1767" x1="352.917" y1="311.861" x2="758.745" y2="378.028" gradientUnits="userSpaceOnUse">
<stop stop-color="#87FFE1"/>
<stop offset="0.776042" stop-color="#5C6DFF"/>
</linearGradient>
<linearGradient id="paint5_linear_101_1767" x1="363.3" y1="335.381" x2="685.168" y2="335.381" gradientUnits="userSpaceOnUse">
<stop stop-color="#3CDEB6"/>
<stop offset="0.65625" stop-color="#364AFF"/>
</linearGradient>
<linearGradient id="paint6_linear_101_1767" x1="76.8689" y1="386.469" x2="619.038" y2="549.188" gradientUnits="userSpaceOnUse">
<stop stop-color="#75A5FF"/>
<stop offset="0.703125" stop-color="#2339FF"/>
</linearGradient>
<linearGradient id="paint7_linear_101_1767" x1="0.000976563" y1="189.3" x2="557.326" y2="336.181" gradientUnits="userSpaceOnUse">
<stop stop-color="#87FFE1"/>
<stop offset="0.776042" stop-color="#5C6DFF"/>
</linearGradient>
<linearGradient id="paint8_linear_101_1767" x1="14.8553" y1="210.117" x2="475.339" y2="210.117" gradientUnits="userSpaceOnUse">
<stop stop-color="#3CDEB6"/>
<stop offset="0.65625" stop-color="#364AFF"/>
</linearGradient>
<clipPath id="clip0_101_1767">
<rect width="838" height="838" fill="white"/>
</clipPath>
</defs>
</svg>
